<?xml version="1.0" encoding="utf-8"?>
<!-- Generator: Adobe Illustrator 15.1.0, SVG Export Plug-In . SVG Version: 6.00 Build 0)  -->
<!DOCTYPE svg PUBLIC "-//W3C//DTD SVG 1.1//EN" "http://www.w3.org/Graphics/SVG/1.1/DTD/svg11.dtd" [
	<!ENTITY ns_flows "http://ns.adobe.com/Flows/1.0/">
	<!ENTITY ns_extend "http://ns.adobe.com/Extensibility/1.0/">
	<!ENTITY ns_ai "http://ns.adobe.com/AdobeIllustrator/10.0/">
	<!ENTITY ns_graphs "http://ns.adobe.com/Graphs/1.0/">
]>
<svg version="1.1" id="レイヤー_2" xmlns:x="&ns_extend;" xmlns:i="&ns_ai;" xmlns:graph="&ns_graphs;"
	 xmlns="http://www.w3.org/2000/svg" xmlns:xlink="http://www.w3.org/1999/xlink" xmlns:a="http://ns.adobe.com/AdobeSVGViewerExtensions/3.0/"
	 x="0px" y="0px" width="191.291px" height="54.516px" viewBox="0 0 191.291 54.516" enable-background="new 0 0 191.291 54.516"
	 xml:space="preserve">
<g>
	<g>
		<path fill="#FFFFFF" stroke="#FFFFFF" stroke-width="1.0835" stroke-linecap="round" stroke-linejoin="round" d="M53.981,27.263
			c0,14.754-11.971,26.711-26.713,26.711c-14.768,0-26.727-11.957-26.727-26.711S12.501,0.542,27.269,0.542
			C42.011,0.542,53.981,12.509,53.981,27.263z"/>
		<g>
			<g>
				<path fill="#2C4198" d="M52.902,27.263c0,14.152-11.481,25.644-25.634,25.644c-14.16,0-25.639-11.491-25.639-25.644
					c0-14.15,11.479-25.637,25.639-25.637C41.421,1.626,52.902,13.112,52.902,27.263z M27.269,4.846
					c-12.385,0-22.421,10.046-22.421,22.417c0,12.381,10.036,22.421,22.421,22.421c12.375,0,22.411-10.04,22.411-22.421
					C49.68,14.892,39.644,4.846,27.269,4.846z"/>
				<path fill="#FDD000" d="M27.323,29.862c-4.45-1.428-7.726-3.727-7.726-8.405c0-2.064,1.295-4.579,1.295-7.38
					c0-3.874-5.04-4.751-9.243-0.047c-2.052,2.301-4.847,7.099-4.847,13.221c0,9.144,5.921,15.727,11.197,18.262
					C32.125,52.299,41.345,34.379,27.323,29.862z"/>
				<path fill="#F39800" d="M39.604,22.002c1.76,0.445,3.123,1.639,4.354,3.565c2.444,3.791,3.011,9.946-1.303,15.123
					c-1.568,1.889-4.894,4.148-8.755,4.385c-2.972,0.188-5.843-1.188-7.319-2.641c-2.325-2.338-2.214-7.47,2.938-7.839
					c3.042-0.217,5.251-2.241,6.075-3.665c0.82-1.408,1.498-4.244,1.381-6.517C36.881,22.688,37.789,21.531,39.604,22.002z"/>
			</g>
		</g>
	</g>
	<g>
		<g>
			<path fill="#2C4198" d="M77.934,39.907V19.961H72.79v17.074c-0.557,0.314-1.266,0.502-2.055,0.502
				c-1.645,0-2.492-1.066-2.492-2.738V19.961h-5.099v14.248c0,5.305,2.709,7.343,7.435,7.343
				C73.913,41.552,76.402,40.894,77.934,39.907z"/>
			<path fill="#2C4198" d="M95.808,41.159V26.183c0-4.481-2.39-6.608-7.588-6.608c-3.215,0-5.613,0.625-7.312,1.568v20.017h5.065
				V23.705c0.559-0.271,1.064-0.396,2.131-0.396c1.806,0,2.554,1.018,2.554,2.874v14.977H95.808z"/>
			<path fill="#2C4198" d="M117.875,39.979l-1.06-3.464c-0.475,0.479-1.148,0.795-2.246,0.795c-2.047,0-3.301-2.59-3.301-6.888
				c0-4.166,1.088-6.884,3.385-6.884c1.059,0,1.773,0.402,2.162,0.787l1.019-3.184c-0.78-0.865-2.122-1.568-4.415-1.568
				c-3.995,0-7.306,3.734-7.306,10.935c0,7.231,2.994,11.043,7.306,11.043C115.829,41.552,117.087,40.847,117.875,39.979z"/>
			<path fill="#2C4198" d="M134.684,41.159V26.257c0-4.138-2.207-6.646-6.104-6.646c-1.412,0-2.678,0.35-3.74,0.979v-7.622h-5.071
				v28.191h5.071V23.857c0.715-0.391,1.375-0.549,2.211-0.549c1.529,0,2.473,1.055,2.473,2.948v14.902H134.684z"/>
			<path fill="#2C4198" d="M151.674,39.979V27.362c0-5.831-2.994-7.788-6.968-7.788c-3.174,0-5.299,0.898-6.524,1.568l1.063,3.342
				c1.148-0.584,2.713-1.096,4.486-1.096c1.854,0,3.024,0.938,3.024,2.944v0.715c-5.657,0.742-9.666,2.441-9.666,7.864
				c0,4.207,2.552,6.64,7.616,6.64C148.014,41.552,150.146,40.964,151.674,39.979z M146.756,37.74
				c-0.393,0.162-1.084,0.357-1.81,0.357c-2.002,0-3.078-1.225-3.078-3.377c0-3.073,1.627-4.177,4.888-4.606V37.74z"/>
			<path fill="#2C4198" d="M164.807,19.611c-4.877-0.238-7.589,0.391-9.519,1.531v20.017h5.075V23.705
				c0.986-0.475,2.328-0.516,3.51,0.08L164.807,19.611z"/>
			<path fill="#2C4198" d="M191.291,41.159V26.183c0-4.214-2.477-6.608-6.06-6.608c-2.783,0-4.478,0.82-5.702,2.037
				c-0.943-1.139-2.633-2.037-5.702-2.037c-3.418,0-5.559,0.625-7.2,1.568v20.017h5.073V23.664c0.592-0.23,1.102-0.389,2.086-0.389
				c1.731,0,2.589,1.209,2.589,2.952v14.932h5.169V24.217c0.582-0.637,1.291-0.941,2.23-0.941c1.57,0,2.404,1.129,2.404,2.907
				v14.977H191.291z"/>
			<g>
				<path fill="#2C4198" d="M104.168,15.722c0-1.535-1.264-2.754-2.79-2.754c-1.498,0-2.707,1.219-2.707,2.754
					c0,1.492,1.209,2.741,2.707,2.741C102.904,18.463,104.168,17.214,104.168,15.722z"/>
				<polygon fill="#2C4198" points="103.973,19.891 103.973,41.159 98.86,41.159 98.86,19.949 				"/>
			</g>
		</g>
	</g>
</g>
</svg>
